<svg width="18" height="19" viewBox="0 0 18 19" fill="none" xmlns="http://www.w3.org/2000/svg">
<path fill-rule="evenodd" clip-rule="evenodd" d="M1.20452 6.56047C1.58525 6.3973 2.02616 6.57367 2.18933 6.95439L1.49996 7.24983C2.18933 6.95439 2.18943 6.95464 2.18933 6.95439L2.18894 6.95349C2.18888 6.95335 2.18873 6.953 2.18894 6.95349L2.19188 6.96013C2.19488 6.9669 2.20004 6.97839 2.20739 6.99429C2.22209 7.0261 2.24548 7.07551 2.27772 7.14001C2.34227 7.2691 2.44196 7.45791 2.57803 7.68652C2.85103 8.14516 3.26579 8.75601 3.83081 9.36449C3.96399 9.50787 4.10493 9.65067 4.2538 9.79085C4.26002 9.79655 4.26617 9.80232 4.27225 9.80817C5.38577 10.8509 6.9392 11.7498 9 11.7498C9.90667 11.7498 10.7087 11.5767 11.4157 11.2985C12.3352 10.9365 13.1059 10.3917 13.7367 9.79962C14.4489 9.13111 14.972 8.41236 15.3174 7.85807C15.4895 7.58201 15.6155 7.34971 15.6974 7.18915C15.7383 7.10894 15.7681 7.04689 15.7868 7.00654C15.7963 6.98636 15.8029 6.97163 15.8068 6.96278L15.8106 6.95439C15.9739 6.57388 16.4148 6.39734 16.7954 6.56047C17.1761 6.72363 17.3525 7.16455 17.1893 7.54527L16.5 7.24983C17.1893 7.54527 17.1894 7.5451 17.1893 7.54527L17.1877 7.54903L17.1851 7.5552L17.1764 7.57458C17.1693 7.59057 17.1592 7.61266 17.1463 7.64036C17.1205 7.69576 17.0831 7.77373 17.0336 7.87062C16.9349 8.06424 16.788 8.33438 16.5904 8.65133C16.2885 9.13595 15.864 9.737 15.3072 10.3431L15.9053 10.9411C16.1982 11.234 16.1982 11.7089 15.9053 12.0018C15.6124 12.2946 15.1376 12.2946 14.8446 12.0018L14.2145 11.3716C13.7913 11.7135 13.3177 12.0358 12.7918 12.314L13.3786 13.2158C13.6045 13.563 13.5062 14.0275 13.159 14.2535C12.8118 14.4794 12.3473 14.3811 12.1214 14.0339L11.3822 12.8979C10.873 13.0541 10.329 13.1647 9.75 13.2165V14.3748C9.75 14.7891 9.41415 15.1248 9 15.1248C8.58578 15.1248 8.25 14.7891 8.25 14.3748V13.2167C7.66898 13.1648 7.12511 13.0539 6.61751 12.8982L5.87861 14.0339C5.6527 14.3811 5.18811 14.4794 4.84093 14.2535C4.49374 14.0275 4.39542 13.563 4.62133 13.2158L5.20813 12.3139C4.68304 12.036 4.20934 11.7136 3.7856 11.3715L3.1553 12.0018C2.86241 12.2946 2.38753 12.2946 2.09464 12.0018C1.80174 11.7089 1.80174 11.234 2.09464 10.9411L2.69272 10.3431C2.05897 9.65322 1.59579 8.969 1.28909 8.45375C1.1322 8.19017 1.01509 7.96884 0.936075 7.81082C0.896543 7.73175 0.866468 7.66837 0.84564 7.62328C0.835223 7.60074 0.827115 7.58275 0.821288 7.56964L0.814245 7.55368L0.812003 7.54851L0.8112 7.54665L0.810878 7.5459C0.810735 7.54557 0.810608 7.54527 1.49996 7.24983L0.810878 7.5459C0.64771 7.16517 0.8238 6.72363 1.20452 6.56047Z" fill="black"/>
</svg>
