<svg width="18" height="19" viewBox="0 0 18 19" fill="none" xmlns="http://www.w3.org/2000/svg">
<path d="M7.3125 9.5C7.3125 8.56805 8.06805 7.8125 9 7.8125C9.93195 7.8125 10.6875 8.56805 10.6875 9.5C10.6875 10.4319 9.93195 11.1875 9 11.1875C8.06805 11.1875 7.3125 10.4319 7.3125 9.5Z" fill="black" fill-opacity="0.8"/>
<path fill-rule="evenodd" clip-rule="evenodd" d="M1.5 9.5C1.5 10.7296 1.81872 11.1436 2.45617 11.9718C3.72897 13.6253 5.86358 15.5 9 15.5C12.1364 15.5 14.271 13.6253 15.5438 11.9718C16.1812 11.1436 16.5 10.7296 16.5 9.5C16.5 8.27045 16.1812 7.8564 15.5438 7.02825C14.271 5.37467 12.1364 3.5 9 3.5C5.86358 3.5 3.72897 5.37467 2.45617 7.02825C1.81872 7.8564 1.5 8.27045 1.5 9.5ZM9 6.6875C7.4467 6.6875 6.1875 7.9467 6.1875 9.5C6.1875 11.0533 7.4467 12.3125 9 12.3125C10.5533 12.3125 11.8125 11.0533 11.8125 9.5C11.8125 7.9467 10.5533 6.6875 9 6.6875Z" fill="black" fill-opacity="0.8"/>
</svg>
