<svg width="64" height="64" viewBox="0 0 64 64" fill="none" xmlns="http://www.w3.org/2000/svg">
<path d="M5.33331 31.9999C5.33331 19.4291 5.33331 13.1437 9.23857 9.23851C13.1438 5.33325 19.4292 5.33325 32 5.33325C44.5706 5.33325 50.8562 5.33325 54.7613 9.23851C58.6666 13.1437 58.6666 19.4291 58.6666 31.9999C58.6666 44.5706 58.6666 50.8562 54.7613 54.7613C50.8562 58.6666 44.5706 58.6666 32 58.6666C19.4292 58.6666 13.1438 58.6666 9.23857 54.7613C5.33331 50.8562 5.33331 44.5706 5.33331 31.9999Z" stroke="black" stroke-width="4"/>
<path d="M42.6666 26.6667C45.6122 26.6667 48 24.2789 48 21.3333C48 18.3878 45.6122 16 42.6666 16C39.7211 16 37.3333 18.3878 37.3333 21.3333C37.3333 24.2789 39.7211 26.6667 42.6666 26.6667Z" stroke="black" stroke-width="4"/>
<path d="M13.3333 35.4854L15.4947 33.4779C17.9642 31.1843 21.8219 31.3131 24.133 33.7662L31.193 41.2606C32.6282 42.7838 34.9776 42.9891 36.6552 41.7377C39.0725 39.9342 42.4384 40.1393 44.6192 42.2225L50.6666 48.0001" stroke="black" stroke-width="4" stroke-linecap="round"/>
</svg>
