<svg width="18" height="19" viewBox="0 0 18 19" fill="none" xmlns="http://www.w3.org/2000/svg">
<path d="M15.2024 12.6988L15.7316 9.6389C15.8637 8.87465 15.276 8.17565 14.5013 8.17565H10.6154C10.2303 8.17565 9.93705 7.82996 9.99938 7.44949L10.4964 4.41607C10.5771 3.92326 10.5541 3.419 10.4287 2.93564C10.3248 2.53523 10.0159 2.21371 9.6096 2.0832L9.50085 2.04826C9.2553 1.96939 8.98733 1.98774 8.7558 2.09929C8.50103 2.22208 8.31458 2.44605 8.2455 2.71242L7.88873 4.08781C7.77518 4.52542 7.60988 4.94784 7.39664 5.34697C7.08512 5.93013 6.60349 6.39685 6.10283 6.82827L5.02379 7.75812C4.71954 8.02033 4.55976 8.41295 4.59438 8.8133L5.20351 15.8578C5.25938 16.504 5.7996 17 6.44744 17H9.9339C12.5449 17 14.7731 15.1808 15.2024 12.6988Z" fill="red" fill-opacity="0.8"/>
<path fill-rule="evenodd" clip-rule="evenodd" d="M2.22575 7.61381C2.5267 7.60083 2.78446 7.82723 2.81041 8.12735L3.53911 16.5547C3.58592 17.0961 3.15951 17.5627 2.61503 17.5627C2.10217 17.5627 1.6875 17.1466 1.6875 16.6347V8.1758C1.6875 7.87457 1.9248 7.6268 2.22575 7.61381Z" fill="red" fill-opacity="0.8"/>
</svg>
