<svg width="32" height="32" viewBox="0 0 32 32" fill="none" xmlns="http://www.w3.org/2000/svg">
<path fill-rule="evenodd" clip-rule="evenodd" d="M16 21C16.5523 21 17 20.5523 17 20V5.36993L19.2408 7.98413C19.6002 8.40346 20.2315 8.45202 20.6508 8.09259C21.0702 7.73318 21.1187 7.10187 20.7592 6.68255L16.7592 2.01589C16.5694 1.79423 16.2919 1.66667 16 1.66667C15.7082 1.66667 15.4307 1.79423 15.2408 2.01589L11.2408 6.68255C10.8813 7.10187 10.9299 7.73318 11.3492 8.09259C11.7686 8.45202 12.3999 8.40346 12.7593 7.98413L15 5.36993V20C15 20.5523 15.4478 21 16 21Z" fill="black"/>
<path d="M21.3333 12C20.397 12 19.9289 12 19.5926 12.2247C19.447 12.322 19.322 12.447 19.2248 12.5926C19 12.9289 19 13.3971 19 14.3333V20C19 21.6568 17.6569 23 16 23C14.3432 23 13 21.6568 13 20V14.3333C13 13.3971 13 12.9289 12.7753 12.5925C12.678 12.447 12.553 12.322 12.4075 12.2247C12.0712 12 11.603 12 10.6666 12C6.89539 12 5.00977 12 3.8382 13.1716C2.66663 14.3432 2.66663 16.2285 2.66663 19.9997V21.3331C2.66663 25.1043 2.66663 26.9899 3.8382 28.1615C5.00977 29.3331 6.89539 29.3331 10.6666 29.3331H21.3333C25.1045 29.3331 26.9901 29.3331 28.1617 28.1615C29.3333 26.9899 29.3333 25.1043 29.3333 21.3331V19.9997C29.3333 16.2285 29.3333 14.3432 28.1617 13.1716C26.9901 12 25.1045 12 21.3333 12Z" fill="black"/>
</svg>
